<svg xmlns="http://www.w3.org/2000/svg" viewBox="0 0 822.6 382.18"><defs><style>.cls-1{fill:#231815;}</style></defs><g id="レイヤー_2" data-name="レイヤー 2"><g id="Graphic"><path class="cls-1" d="M521.29,234.58c-10.78,1.89-19.55,12.43-19.56,23.51A18.17,18.17,0,0,0,508,272.14a17.15,17.15,0,0,0,11.17,4,19.79,19.79,0,0,0,3.4-.3c10.76-1.89,19.53-12.44,19.55-23.51a18.22,18.22,0,0,0-6.27-14.06A17.57,17.57,0,0,0,521.29,234.58Z"/><path class="cls-1" d="M.29,339A4.86,4.86,0,0,0,6,343.82L88.28,329.4c64.22-11.25,95.48-48.07,95.55-112.56,0-31.16-8.8-53.7-27-68.91-15.18-12.75-36.57-16.49-65.41-11.43L4,151.85a4.86,4.86,0,0,0-4,4.8Zm82.76-28.2-20.57,3.6c-1.79.33-4.2.45-5.58-.72s-1.82-4-1.82-6.12V169c0-7.1,2.17-7.79,6.62-8.57l17.5-3.07c1.89-.33,3.79-.7,5.71-1.07,6.23-1.2,12.28-2.36,17.83-2.36s10.77,1.21,15,4.83c13,11.09,19.24,32.76,19.2,66.23C136.89,279.26,121.27,304.14,83.05,310.84Z"/><path class="cls-1" d="M319.42,245.26a4.75,4.75,0,0,0-3.6,2.81c-6.8,15.86-19.09,25.45-36.56,28.51-9.75,1.71-17.31.51-22.46-3.56-7.92-6.26-9.59-18.45-10.18-28.43-.22-2.92.36-3.66,3.29-4.17l84.57-14.82a3.78,3.78,0,0,0,3.11-3.88h0c-1-21.61-8.49-38.67-21.78-49.33-12.13-9.74-28.58-13.39-46.31-10.28C219,171,195.4,214.42,195.37,241a53.58,53.58,0,0,0,19.4,41.73c11.64,9.8,26.92,14.89,44.06,14.89a94.41,94.41,0,0,0,16.32-1.46c37.6-6.59,52.31-30.5,58.88-45.75a4.87,4.87,0,0,0-5.28-6.7Zm-49.58-68c4.82-.87,8.66-.06,11.73,2.42,8,6.44,9.39,23,9.78,31.18.13,2.38-.15,5.29-3.3,6.06l-38.89,6.81c-1.93.34-2.58-.76-2.56-2.78C247.87,194.15,255.46,179.81,269.84,177.29Z"/><path class="cls-1" d="M638.92,191.86h0l.17-154.8a4.85,4.85,0,0,0-5.69-4.79l-10.69,1.87-.89,1.09c-1.13,1.38-113.6,138.5-154.26,183.24-16.34,18-36.15,25.52-51.69,19.64-11.62-4.4-18.68-15.93-18.9-30.84l-.18-6.18c-.26-22.15,1.44-48,27.64-52.49,15-2.58,27.46,4.78,33.4,9.27a4.86,4.86,0,0,0,6.85-1l2.85-3.84a4.86,4.86,0,0,0-1-6.76c-6.81-5.24-22.67-15.13-43.85-13.69-51.22,3.49-76.71,42.6-74.41,79.27C350,238.25,364.64,259.4,391,266.93c8.94,2.55,18.19,4.42,27.88,4.42,22.5,0,47.35-10.08,76.06-45.11,7.87-9.61,23.67-28.38,41.3-49.31,18.87-22.42,33.5-40.07,49-58.81h0c3.15-3.8,6.78-4.57,6.77,1L592,203a7,7,0,0,1-6,6.76l-17.23,2.79a4.85,4.85,0,0,0-4,4.78v12.3a4.86,4.86,0,0,0,5.69,4.79l95.91-16.8a4.87,4.87,0,0,0,4-4.79v-12.3a4.85,4.85,0,0,0-5.69-4.79l-19.87,3.48C641.33,199.81,638.91,197.16,638.92,191.86Z"/><path class="cls-1" d="M803.29,78.73c-11.28-9.48-26.37-12.89-43.66-9.87-15.93,2.79-26.36,10-33.55,17.59-.06.06-.11.07-.17.13-1.88,1.91-4,2-3.77-1.62,1.05-15.08,3.74-32.48,11.38-45.95,11-19.5,24.1-20.74,31.75-21.32a41.34,41.34,0,0,1,26.47,6.79,5.06,5.06,0,0,0,6.9-1.17L803.36,17a5.1,5.1,0,0,0-1.78-7.62C794.1,5.62,779.29-.4,761.35,0,708.86,1.24,674,61,673.92,132.3c0,32.77,10.42,56.36,26.76,70.1,9.85,8.28,22.62,12.59,36.83,12.59a76.8,76.8,0,0,0,13.14-1.17c34.61-6.07,71.9-35.56,72-86C822.63,106.67,815.77,89.22,803.29,78.73ZM776,133.89c0,36-5.26,47.54-9.78,53.56-5,6.49-11.28,10.44-18.63,11.73-6.59,1.15-11.79,0-15.91-3.44C723.94,189.24,720,175,720,153.33c0-24.44,4.25-40.41,13.66-51.76,4.56-5.48,11.91-12.35,21.06-13.95,4.69-.84,8.42,0,11.38,2.47C776,98.42,776,123.27,776,133.89Z"/><path class="cls-1" d="M341.37,369.82q0,6.3-4.42,9.46-4.09,2.89-11.35,2.9a28.47,28.47,0,0,1-16.1-4.66l5.13-8.33a23.18,23.18,0,0,0,5.3,2.62,18,18,0,0,0,5.89,1.2,9.61,9.61,0,0,0,3.87-.54,2,2,0,0,0,1.09-1.91,2.19,2.19,0,0,0-1.36-1.86,22.52,22.52,0,0,0-5.13-1.64Q316.92,365.38,314,363c-2.26-1.82-3.38-4.55-3.38-8.19a10.68,10.68,0,0,1,4.09-8.75q4.1-3.31,11-3.31a25.71,25.71,0,0,1,15.22,4.43l-5.13,8.29a18.76,18.76,0,0,0-10.64-3.6q-3.93,0-3.93,2.35a1.93,1.93,0,0,0,1.29,1.69,25.31,25.31,0,0,0,5,1.53q7.47,1.75,10.53,4.38A10,10,0,0,1,341.37,369.82Z"/><path class="cls-1" d="M383.83,352.55h-10.7v29H362.54v-29H351.85v-9.23h32Z"/><path class="cls-1" d="M427.65,365.24q0,8.68-4.81,13-4.36,3.94-12.06,3.94t-11.89-3.94q-4.75-4.31-4.75-13V343.32h10.8v21.89q0,7.57,6,7.58t5.89-7.58V343.32h10.81Z"/><path class="cls-1" d="M472.56,362.21q0,10.47-5.24,15.06-4.86,4.26-15.39,4.25H439.54v-38.2h13.37q9.6,0,14.35,4Q472.56,352,472.56,362.21Zm-10.86.16c0-3.56-.67-6.12-2-7.67s-3.62-2.32-6.85-2.32h-2.62v20.09h2.29q5,0,7.09-2.24T461.7,362.37Z"/><path class="cls-1" d="M494.38,381.52h-10.8v-38.2h10.8Z"/><path class="cls-1" d="M540.55,362.4q0,9.35-4.88,14.56t-12.85,5.22c-5.32,0-9.55-1.69-12.72-5.08s-4.91-8.36-4.91-14.59,1.65-11.11,5-14.65,7.45-5.14,12.77-5.14,9.54,1.7,12.71,5.09S540.55,356.17,540.55,362.4Zm-11,.11q0-5.14-1.77-7.86a5.64,5.64,0,0,0-5-2.7q-6.66,0-6.66,10.45c0,3.43.59,6,1.77,7.85a5.66,5.66,0,0,0,5,2.71Q529.58,373,529.58,362.51Z"/></g></g></svg>