<svg xmlns="http://www.w3.org/2000/svg" viewBox="0 0 366.46 366.46"><defs><style>.cls-1{opacity:0.7;}.cls-2{fill:#fff;}</style></defs><g id="レイヤー_2" data-name="レイヤー 2"><g id="レイヤー_1-2" data-name="レイヤー 1"><path class="cls-1" d="M145.07,183.2c-4.21.74-6.42,4.93-6.8,12.77,0,.59.19.91.75.81l11.37-2c.92-.22,1-1.07,1-1.77-.12-2.39-.54-7.23-2.87-9.11A4,4,0,0,0,145.07,183.2Z"/><path class="cls-1" d="M286.8,157c-2.67.47-4.82,2.48-6.15,4.08-2.75,3.32-4,8-4,15.13,0,6.32,1.14,10.49,3.39,12.39a5.39,5.39,0,0,0,4.65,1,8.69,8.69,0,0,0,5.45-3.43c1.32-1.76,2.85-5.14,2.86-15.66,0-3.1,0-10.36-2.88-12.8A3.88,3.88,0,0,0,286.8,157Z"/><path class="cls-1" d="M96.23,176.37a28.72,28.72,0,0,0-5.22.69l-1.66.31-5.12.9c-1.3.22-1.93.43-1.94,2.5v40.52a2.46,2.46,0,0,0,.54,1.79,2.08,2.08,0,0,0,1.63.21l6-1c11.17-2,15.74-9.23,15.75-25.1,0-9.79-1.82-16.12-5.61-19.36A6.43,6.43,0,0,0,96.23,176.37Z"/><path class="cls-1" d="M318.73,3.41,3.41,47.73,47.73,363.05l315.32-44.32ZM92,227.66l-24,4.22a1.43,1.43,0,0,1-1.67-1.4l-.08-53.31a1.41,1.41,0,0,1,1.17-1.4l25.54-4.49c8.43-1.48,14.69-.39,19.12,3.34,5.32,4.44,7.91,11,7.9,20.14C119.91,213.61,110.77,224.37,92,227.66Zm72-30.34-24.72,4.33c-.85.15-1,.37-1,1.22.17,2.92.66,6.48,3,8.31,1.5,1.19,3.71,1.54,6.56,1a13.47,13.47,0,0,0,10.69-8.33,1.35,1.35,0,0,1,1.05-.82l2.73-.45a1.42,1.42,0,0,1,1.54,1.95C161.91,209,157.61,216,146.62,218a28.24,28.24,0,0,1-4.77.42A19.69,19.69,0,0,1,129,214a15.69,15.69,0,0,1-5.67-12.2c0-7.77,6.9-20.47,21.67-23.06,5.18-.9,10,.16,13.53,3,3.89,3.12,6.09,8.1,6.37,14.42h0A1.11,1.11,0,0,1,164,197.32Zm55,14.69a5.52,5.52,0,0,1-1,.09,5,5,0,0,1-3.26-1.17,5.28,5.28,0,0,1-1.83-4.11,7.2,7.2,0,0,1,5.71-6.87,5.11,5.11,0,0,1,4.26,1.08,5.34,5.34,0,0,1,1.83,4.11A7.22,7.22,0,0,1,218.93,212Zm43.21-18.43A1.42,1.42,0,0,1,261,195l-28,4.91a1.42,1.42,0,0,1-1.67-1.4V194.9a1.43,1.43,0,0,1,1.18-1.4l5-.81a2,2,0,0,0,1.74-2l0-24.51c0-1.63-1.06-1.41-2-.29h0c-4.53,5.47-8.81,10.63-14.33,17.19-5.15,6.11-9.77,11.6-12.07,14.41-8.39,10.24-15.65,13.18-22.23,13.18a29.48,29.48,0,0,1-8.15-1.29c-7.71-2.2-12-8.38-12.49-16.09-.67-10.72,6.78-22.15,21.75-23.17a19.23,19.23,0,0,1,12.82,4,1.43,1.43,0,0,1,.28,2l-.83,1.12a1.41,1.41,0,0,1-2,.28,12.93,12.93,0,0,0-9.77-2.7c-7.66,1.31-8.15,8.86-8.08,15.34l.06,1.8c.06,4.36,2.12,7.73,5.52,9,4.54,1.72,10.33-.49,15.11-5.74,11.88-13.08,44.76-53.16,45.09-53.56l.26-.32,3.12-.55a1.43,1.43,0,0,1,1.67,1.4L253,187.46h0c0,1.55.7,2.32,1.72,2.15l5.81-1a1.41,1.41,0,0,1,1.66,1.4Zm23.46.3a22.17,22.17,0,0,1-3.84.34A16.44,16.44,0,0,1,271,190.54c-4.78-4-7.83-10.91-7.82-20.49,0-20.84,10.21-38.31,25.55-38.66a25.25,25.25,0,0,1,11.76,2.74,1.48,1.48,0,0,1,.52,2.22l-1.38,1.84a1.48,1.48,0,0,1-2,.35,12,12,0,0,0-7.73-2c-2.24.17-6.06.53-9.28,6.23-2.24,3.94-3,9-3.33,13.43-.06,1,.55,1,1.1.48l.05,0a17.1,17.1,0,0,1,9.81-5.14c5-.89,9.46.11,12.76,2.88,3.65,3.07,5.65,8.17,5.64,14.36C306.62,183.48,295.72,192.1,285.6,193.88Z"/><path class="cls-2" d="M260.48,188.72l-5.81,1c-1,.18-1.73-.59-1.72-2.14h0l.05-45.25a1.43,1.43,0,0,0-1.67-1.4l-3.12.55-.26.31c-.33.41-33.21,40.49-45.09,53.56-4.78,5.26-10.57,7.46-15.11,5.74-3.4-1.28-5.46-4.65-5.52-9l-.06-1.8c-.07-6.48.42-14,8.08-15.35a13,13,0,0,1,9.77,2.71,1.41,1.41,0,0,0,2-.28l.83-1.13a1.41,1.41,0,0,0-.28-2,19.23,19.23,0,0,0-12.82-4c-15,1-22.42,12.45-21.75,23.17.48,7.71,4.78,13.89,12.49,16.09a29.48,29.48,0,0,0,8.15,1.29c6.58,0,13.84-2.95,22.23-13.18,2.3-2.81,6.92-8.3,12.07-14.42,5.52-6.55,9.8-11.71,14.33-17.19h0c.92-1.11,2-1.33,2,.3l0,24.51a2,2,0,0,1-1.74,2l-5,.82a1.43,1.43,0,0,0-1.18,1.4v3.59a1.43,1.43,0,0,0,1.67,1.4l28-4.91a1.42,1.42,0,0,0,1.17-1.4v-3.59A1.4,1.4,0,0,0,260.48,188.72Z"/><path class="cls-2" d="M222.82,201.16a5.15,5.15,0,0,0-4.26-1.09,7.22,7.22,0,0,0-5.71,6.88,5.26,5.26,0,0,0,1.83,4.1,5,5,0,0,0,3.26,1.18,5.52,5.52,0,0,0,1-.09,7.23,7.23,0,0,0,5.72-6.87A5.34,5.34,0,0,0,222.82,201.16Z"/><path class="cls-2" d="M158.5,181.9c-3.54-2.85-8.35-3.92-13.53-3-14.77,2.59-21.66,15.29-21.67,23.06a15.69,15.69,0,0,0,5.67,12.2,19.69,19.69,0,0,0,12.88,4.35,27.28,27.28,0,0,0,4.77-.43c11-1.92,15.29-8.91,17.21-13.37a1.42,1.42,0,0,0-1.54-2l-2.73.45a1.38,1.38,0,0,0-1.05.83,13.49,13.49,0,0,1-10.69,8.33c-2.85.5-5.06.15-6.56-1-2.32-1.83-2.81-5.39-3-8.31-.07-.85.11-1.07,1-1.22L164,197.45a1.11,1.11,0,0,0,.91-1.14h0C164.59,190,162.39,185,158.5,181.9Zm-8.11,13-11.37,2c-.56.1-.75-.22-.75-.81.38-7.84,2.59-12,6.8-12.77a4,4,0,0,1,3.42.71c2.33,1.88,2.75,6.72,2.87,9.11C151.39,193.85,151.31,194.7,150.39,194.92Z"/><path class="cls-2" d="M112,174.75c-4.43-3.73-10.69-4.82-19.12-3.34l-25.54,4.48a1.41,1.41,0,0,0-1.17,1.4l.08,53.32A1.41,1.41,0,0,0,68,232l24-4.21c18.77-3.29,27.91-14,27.93-32.9C119.94,185.78,117.35,179.19,112,174.75ZM90.47,222.36l-6,1.06a2.12,2.12,0,0,1-1.63-.21,2.46,2.46,0,0,1-.54-1.79V180.9c0-2.08.64-2.28,1.94-2.51l5.12-.89,1.66-.31a27.92,27.92,0,0,1,5.22-.7,6.44,6.44,0,0,1,4.38,1.42c3.79,3.24,5.62,9.57,5.61,19.36C106.21,213.13,101.64,220.41,90.47,222.36Z"/><path class="cls-2" d="M321.31,0,0,45.16l45.16,321.3,321.3-45.15ZM3.41,47.86,318.73,3.54l44.32,315.32L47.73,363.18Z"/><path class="cls-2" d="M301,154.52c-3.3-2.77-7.71-3.77-12.76-2.88a17.1,17.1,0,0,0-9.81,5.14l-.05,0c-.55.55-1.16.56-1.1-.48.31-4.41,1.09-9.49,3.33-13.43,3.22-5.7,7-6.06,9.28-6.23a12,12,0,0,1,7.73,2,1.47,1.47,0,0,0,2-.34l1.38-1.84a1.48,1.48,0,0,0-.52-2.22,25.35,25.35,0,0,0-11.76-2.75c-15.34.36-25.53,17.83-25.55,38.67,0,9.58,3,16.47,7.82,20.49a16.44,16.44,0,0,0,10.76,3.68,22.17,22.17,0,0,0,3.84-.34c10.12-1.78,21-10.4,21-25.13C306.64,162.69,304.64,157.59,301,154.52Zm-8,16.12c0,10.51-1.54,13.9-2.86,15.66a8.69,8.69,0,0,1-5.45,3.43,5.42,5.42,0,0,1-4.65-1c-2.25-1.9-3.4-6.07-3.39-12.39,0-7.15,1.24-11.82,4-15.13,1.33-1.61,3.48-3.61,6.15-4.08a3.82,3.82,0,0,1,3.33.72C293,160.28,293,167.54,293,170.64Z"/></g></g></svg>